<svg width="100" height="100" viewBox="0 0 100 100" fill="none" xmlns="http://www.w3.org/2000/svg">
<rect x="1" y="1" width="98" height="98" rx="14" fill="white" stroke="black" stroke-width="2"/>
<path d="M54.636 86.224C49.128 86.224 43.994 85.34 39.234 83.572C34.542 81.736 30.462 79.152 26.994 75.82C23.526 72.488 20.806 68.578 18.834 64.09C16.93 59.602 15.978 54.672 15.978 49.3C15.978 43.928 16.93 38.998 18.834 34.51C20.806 30.022 23.526 26.112 26.994 22.78C30.53 19.448 34.644 16.898 39.336 15.13C44.028 13.294 49.162 12.376 54.738 12.376C60.926 12.376 66.502 13.464 71.466 15.64C76.498 17.748 80.714 20.876 84.114 25.024L73.506 34.816C71.058 32.028 68.338 29.954 65.346 28.594C62.354 27.166 59.09 26.452 55.554 26.452C52.222 26.452 49.162 26.996 46.374 28.084C43.586 29.172 41.172 30.736 39.132 32.776C37.092 34.816 35.494 37.23 34.338 40.018C33.25 42.806 32.706 45.9 32.706 49.3C32.706 52.7 33.25 55.794 34.338 58.582C35.494 61.37 37.092 63.784 39.132 65.824C41.172 67.864 43.586 69.428 46.374 70.516C49.162 71.604 52.222 72.148 55.554 72.148C59.09 72.148 62.354 71.468 65.346 70.108C68.338 68.68 71.058 66.538 73.506 63.682L84.114 73.474C80.714 77.622 76.498 80.784 71.466 82.96C66.502 85.136 60.892 86.224 54.636 86.224Z" fill="black"/>
<rect x="4" y="48" width="91" height="5" rx="1" fill="#9A2121"/>
</svg>
